<mxfile host="app.diagrams.net" modified="2022-04-17T02:20:18.947Z" agent="5.0 (Windows NT 10.0; Win64; x64) AppleWebKit/537.36 (KHTML, like Gecko) Chrome/100.0.4896.88 Safari/537.36" etag="9Nl8V_oV1w-C-OrI1ftQ" version="17.4.3" type="github">
  <diagram id="1KFR3kM4wMgM-dKN8-6M" name="Page-1">
    <mxGraphModel dx="2858" dy="2176" grid="1" gridSize="10" guides="1" tooltips="1" connect="1" arrows="1" fold="1" page="1" pageScale="1" pageWidth="827" pageHeight="1169" math="0" shadow="0">
      <root>
        <mxCell id="0" />
        <mxCell id="1" parent="0" />
        <mxCell id="_EUqcVfMnHmmKsiolm8a-2" value="&lt;font style=&quot;font-size: 23px;&quot;&gt;usuario&lt;/font&gt;" style="rounded=0;whiteSpace=wrap;html=1;fontSize=23;" vertex="1" parent="1">
          <mxGeometry x="170" y="220" width="150" height="60" as="geometry" />
        </mxCell>
        <mxCell id="_EUqcVfMnHmmKsiolm8a-3" value="&lt;font style=&quot;font-size: 23px;&quot;&gt;id&lt;/font&gt;" style="ellipse;whiteSpace=wrap;html=1;fontSize=23;fontStyle=5" vertex="1" parent="1">
          <mxGeometry x="-190" y="360" width="160" height="80" as="geometry" />
        </mxCell>
        <mxCell id="_EUqcVfMnHmmKsiolm8a-5" value="&lt;font style=&quot;font-size: 23px;&quot;&gt;nombre&lt;/font&gt;" style="ellipse;whiteSpace=wrap;html=1;fontSize=23;fontStyle=0" vertex="1" parent="1">
          <mxGeometry x="-240" y="250" width="160" height="80" as="geometry" />
        </mxCell>
        <mxCell id="_EUqcVfMnHmmKsiolm8a-6" value="&lt;font style=&quot;font-size: 23px;&quot;&gt;apellido&lt;/font&gt;" style="ellipse;whiteSpace=wrap;html=1;fontSize=23;fontStyle=0" vertex="1" parent="1">
          <mxGeometry x="-250" y="117.5" width="160" height="80" as="geometry" />
        </mxCell>
        <mxCell id="_EUqcVfMnHmmKsiolm8a-7" value="&lt;font style=&quot;font-size: 23px;&quot;&gt;correo&lt;/font&gt;" style="ellipse;whiteSpace=wrap;html=1;fontSize=23;fontStyle=0" vertex="1" parent="1">
          <mxGeometry x="-210" y="10" width="160" height="80" as="geometry" />
        </mxCell>
        <mxCell id="_EUqcVfMnHmmKsiolm8a-8" value="&lt;font style=&quot;font-size: 23px;&quot;&gt;contraseña&lt;/font&gt;" style="ellipse;whiteSpace=wrap;html=1;fontSize=23;fontStyle=0" vertex="1" parent="1">
          <mxGeometry x="-90" y="-80" width="160" height="80" as="geometry" />
        </mxCell>
        <mxCell id="_EUqcVfMnHmmKsiolm8a-9" value="&lt;font style=&quot;font-size: 23px;&quot;&gt;rol&lt;/font&gt;" style="ellipse;whiteSpace=wrap;html=1;fontSize=23;fontStyle=0" vertex="1" parent="1">
          <mxGeometry x="80" y="-140" width="160" height="80" as="geometry" />
        </mxCell>
        <mxCell id="_EUqcVfMnHmmKsiolm8a-10" value="&lt;font style=&quot;font-size: 23px;&quot;&gt;fechaCreación&lt;/font&gt;" style="ellipse;whiteSpace=wrap;html=1;fontSize=23;fontStyle=0" vertex="1" parent="1">
          <mxGeometry x="280" y="-140" width="160" height="80" as="geometry" />
        </mxCell>
        <mxCell id="_EUqcVfMnHmmKsiolm8a-11" value="&lt;font style=&quot;font-size: 23px;&quot;&gt;estado&lt;/font&gt;" style="ellipse;whiteSpace=wrap;html=1;fontSize=23;fontStyle=0" vertex="1" parent="1">
          <mxGeometry x="450" y="-70" width="160" height="80" as="geometry" />
        </mxCell>
        <mxCell id="_EUqcVfMnHmmKsiolm8a-12" value="" style="endArrow=none;html=1;rounded=0;fontSize=23;exitX=1;exitY=0.5;exitDx=0;exitDy=0;entryX=0.25;entryY=1;entryDx=0;entryDy=0;" edge="1" parent="1" source="_EUqcVfMnHmmKsiolm8a-3" target="_EUqcVfMnHmmKsiolm8a-2">
          <mxGeometry width="50" height="50" relative="1" as="geometry">
            <mxPoint x="390" y="290" as="sourcePoint" />
            <mxPoint x="440" y="240" as="targetPoint" />
          </mxGeometry>
        </mxCell>
        <mxCell id="_EUqcVfMnHmmKsiolm8a-13" value="" style="endArrow=none;html=1;rounded=0;fontSize=23;exitX=0.988;exitY=0.588;exitDx=0;exitDy=0;exitPerimeter=0;entryX=0;entryY=1;entryDx=0;entryDy=0;" edge="1" parent="1" source="_EUqcVfMnHmmKsiolm8a-5" target="_EUqcVfMnHmmKsiolm8a-2">
          <mxGeometry width="50" height="50" relative="1" as="geometry">
            <mxPoint x="390" y="290" as="sourcePoint" />
            <mxPoint x="440" y="240" as="targetPoint" />
          </mxGeometry>
        </mxCell>
        <mxCell id="_EUqcVfMnHmmKsiolm8a-14" value="" style="endArrow=none;html=1;rounded=0;fontSize=23;exitX=1;exitY=0.5;exitDx=0;exitDy=0;entryX=0;entryY=0.5;entryDx=0;entryDy=0;" edge="1" parent="1" source="_EUqcVfMnHmmKsiolm8a-6" target="_EUqcVfMnHmmKsiolm8a-2">
          <mxGeometry width="50" height="50" relative="1" as="geometry">
            <mxPoint x="390" y="290" as="sourcePoint" />
            <mxPoint x="440" y="240" as="targetPoint" />
          </mxGeometry>
        </mxCell>
        <mxCell id="_EUqcVfMnHmmKsiolm8a-15" value="" style="endArrow=none;html=1;rounded=0;fontSize=23;exitX=1;exitY=1;exitDx=0;exitDy=0;entryX=0;entryY=0;entryDx=0;entryDy=0;" edge="1" parent="1" source="_EUqcVfMnHmmKsiolm8a-7" target="_EUqcVfMnHmmKsiolm8a-2">
          <mxGeometry width="50" height="50" relative="1" as="geometry">
            <mxPoint x="390" y="290" as="sourcePoint" />
            <mxPoint x="440" y="240" as="targetPoint" />
          </mxGeometry>
        </mxCell>
        <mxCell id="_EUqcVfMnHmmKsiolm8a-16" value="" style="endArrow=none;html=1;rounded=0;fontSize=23;entryX=0.5;entryY=1;entryDx=0;entryDy=0;exitX=0.25;exitY=0;exitDx=0;exitDy=0;" edge="1" parent="1" source="_EUqcVfMnHmmKsiolm8a-2" target="_EUqcVfMnHmmKsiolm8a-8">
          <mxGeometry width="50" height="50" relative="1" as="geometry">
            <mxPoint x="390" y="290" as="sourcePoint" />
            <mxPoint x="440" y="240" as="targetPoint" />
          </mxGeometry>
        </mxCell>
        <mxCell id="_EUqcVfMnHmmKsiolm8a-17" value="" style="endArrow=none;html=1;rounded=0;fontSize=23;entryX=0.5;entryY=1;entryDx=0;entryDy=0;exitX=0.5;exitY=0;exitDx=0;exitDy=0;" edge="1" parent="1" source="_EUqcVfMnHmmKsiolm8a-2" target="_EUqcVfMnHmmKsiolm8a-9">
          <mxGeometry width="50" height="50" relative="1" as="geometry">
            <mxPoint x="390" y="290" as="sourcePoint" />
            <mxPoint x="440" y="240" as="targetPoint" />
          </mxGeometry>
        </mxCell>
        <mxCell id="_EUqcVfMnHmmKsiolm8a-18" value="" style="endArrow=none;html=1;rounded=0;fontSize=23;entryX=0.5;entryY=1;entryDx=0;entryDy=0;exitX=0.75;exitY=0;exitDx=0;exitDy=0;" edge="1" parent="1" source="_EUqcVfMnHmmKsiolm8a-2" target="_EUqcVfMnHmmKsiolm8a-10">
          <mxGeometry width="50" height="50" relative="1" as="geometry">
            <mxPoint x="390" y="290" as="sourcePoint" />
            <mxPoint x="440" y="240" as="targetPoint" />
          </mxGeometry>
        </mxCell>
        <mxCell id="_EUqcVfMnHmmKsiolm8a-19" value="" style="endArrow=none;html=1;rounded=0;fontSize=23;entryX=0;entryY=1;entryDx=0;entryDy=0;exitX=1;exitY=0;exitDx=0;exitDy=0;" edge="1" parent="1" source="_EUqcVfMnHmmKsiolm8a-2" target="_EUqcVfMnHmmKsiolm8a-11">
          <mxGeometry width="50" height="50" relative="1" as="geometry">
            <mxPoint x="390" y="290" as="sourcePoint" />
            <mxPoint x="440" y="240" as="targetPoint" />
          </mxGeometry>
        </mxCell>
        <mxCell id="_EUqcVfMnHmmKsiolm8a-20" value="&lt;font style=&quot;font-size: 23px;&quot;&gt;compra&lt;/font&gt;" style="rounded=0;whiteSpace=wrap;html=1;fontSize=23;" vertex="1" parent="1">
          <mxGeometry x="1187" y="220" width="150" height="60" as="geometry" />
        </mxCell>
        <mxCell id="_EUqcVfMnHmmKsiolm8a-28" value="&lt;font style=&quot;font-size: 23px;&quot;&gt;idTransacción&amp;nbsp;&lt;/font&gt;" style="ellipse;whiteSpace=wrap;html=1;fontSize=23;fontStyle=0" vertex="1" parent="1">
          <mxGeometry x="1520" y="-50" width="160" height="80" as="geometry" />
        </mxCell>
        <mxCell id="_EUqcVfMnHmmKsiolm8a-29" value="" style="endArrow=none;html=1;rounded=0;fontSize=23;entryX=0.933;entryY=1.05;entryDx=0;entryDy=0;exitX=0;exitY=0;exitDx=0;exitDy=0;entryPerimeter=0;" edge="1" parent="1" source="_EUqcVfMnHmmKsiolm8a-45" target="_EUqcVfMnHmmKsiolm8a-20">
          <mxGeometry width="50" height="50" relative="1" as="geometry">
            <mxPoint x="1690" y="520" as="sourcePoint" />
            <mxPoint x="1457" y="240" as="targetPoint" />
          </mxGeometry>
        </mxCell>
        <mxCell id="_EUqcVfMnHmmKsiolm8a-30" value="" style="endArrow=none;html=1;rounded=0;fontSize=23;exitX=0;exitY=0;exitDx=0;exitDy=0;" edge="1" parent="1" source="_EUqcVfMnHmmKsiolm8a-44">
          <mxGeometry width="50" height="50" relative="1" as="geometry">
            <mxPoint x="995.0799999999999" y="117.03999999999996" as="sourcePoint" />
            <mxPoint x="1300" y="280" as="targetPoint" />
          </mxGeometry>
        </mxCell>
        <mxCell id="_EUqcVfMnHmmKsiolm8a-36" value="" style="endArrow=none;html=1;rounded=0;fontSize=23;entryX=0;entryY=0.5;entryDx=0;entryDy=0;exitX=0.75;exitY=0;exitDx=0;exitDy=0;" edge="1" parent="1" source="_EUqcVfMnHmmKsiolm8a-20" target="_EUqcVfMnHmmKsiolm8a-28">
          <mxGeometry width="50" height="50" relative="1" as="geometry">
            <mxPoint x="1407" y="290" as="sourcePoint" />
            <mxPoint x="1457" y="240" as="targetPoint" />
          </mxGeometry>
        </mxCell>
        <mxCell id="_EUqcVfMnHmmKsiolm8a-40" value="&lt;font style=&quot;font-size: 23px;&quot;&gt;impuesto&lt;/font&gt;" style="ellipse;whiteSpace=wrap;html=1;fontSize=23;fontStyle=0" vertex="1" parent="1">
          <mxGeometry x="1600" y="400" width="160" height="80" as="geometry" />
        </mxCell>
        <mxCell id="_EUqcVfMnHmmKsiolm8a-41" value="&lt;font style=&quot;font-size: 23px;&quot;&gt;total&lt;/font&gt;" style="ellipse;whiteSpace=wrap;html=1;fontSize=23;fontStyle=0" vertex="1" parent="1">
          <mxGeometry x="1640" y="290" width="160" height="80" as="geometry" />
        </mxCell>
        <mxCell id="_EUqcVfMnHmmKsiolm8a-42" value="&lt;font style=&quot;font-size: 23px;&quot;&gt;fecha&lt;/font&gt;" style="ellipse;whiteSpace=wrap;html=1;fontSize=23;fontStyle=0" vertex="1" parent="1">
          <mxGeometry x="1640" y="170" width="160" height="80" as="geometry" />
        </mxCell>
        <mxCell id="_EUqcVfMnHmmKsiolm8a-43" value="&lt;font style=&quot;font-size: 23px;&quot;&gt;fecha pago&lt;/font&gt;" style="ellipse;whiteSpace=wrap;html=1;fontSize=23;fontStyle=0" vertex="1" parent="1">
          <mxGeometry x="1580" y="60" width="160" height="80" as="geometry" />
        </mxCell>
        <mxCell id="_EUqcVfMnHmmKsiolm8a-44" value="&lt;font style=&quot;font-size: 23px;&quot;&gt;id&lt;/font&gt;" style="ellipse;whiteSpace=wrap;html=1;fontSize=23;fontStyle=5" vertex="1" parent="1">
          <mxGeometry x="1420" y="590" width="160" height="80" as="geometry" />
        </mxCell>
        <mxCell id="_EUqcVfMnHmmKsiolm8a-45" value="&lt;font style=&quot;font-size: 23px;&quot;&gt;subTotal&lt;/font&gt;" style="ellipse;whiteSpace=wrap;html=1;fontSize=23;fontStyle=0" vertex="1" parent="1">
          <mxGeometry x="1540" y="505" width="160" height="80" as="geometry" />
        </mxCell>
        <mxCell id="_EUqcVfMnHmmKsiolm8a-46" value="" style="endArrow=none;html=1;rounded=0;fontSize=23;exitX=0;exitY=0;exitDx=0;exitDy=0;entryX=1;entryY=1;entryDx=0;entryDy=0;" edge="1" parent="1" source="_EUqcVfMnHmmKsiolm8a-40" target="_EUqcVfMnHmmKsiolm8a-20">
          <mxGeometry width="50" height="50" relative="1" as="geometry">
            <mxPoint x="1407" y="440" as="sourcePoint" />
            <mxPoint x="1457" y="390" as="targetPoint" />
          </mxGeometry>
        </mxCell>
        <mxCell id="_EUqcVfMnHmmKsiolm8a-47" value="" style="endArrow=none;html=1;rounded=0;fontSize=23;exitX=0;exitY=0.5;exitDx=0;exitDy=0;entryX=1;entryY=0.75;entryDx=0;entryDy=0;" edge="1" parent="1" source="_EUqcVfMnHmmKsiolm8a-41" target="_EUqcVfMnHmmKsiolm8a-20">
          <mxGeometry width="50" height="50" relative="1" as="geometry">
            <mxPoint x="1407" y="440" as="sourcePoint" />
            <mxPoint x="1457" y="390" as="targetPoint" />
          </mxGeometry>
        </mxCell>
        <mxCell id="_EUqcVfMnHmmKsiolm8a-48" value="" style="endArrow=none;html=1;rounded=0;fontSize=23;exitX=0;exitY=0.5;exitDx=0;exitDy=0;entryX=1;entryY=0.5;entryDx=0;entryDy=0;" edge="1" parent="1" source="_EUqcVfMnHmmKsiolm8a-42" target="_EUqcVfMnHmmKsiolm8a-20">
          <mxGeometry width="50" height="50" relative="1" as="geometry">
            <mxPoint x="1287" y="500" as="sourcePoint" />
            <mxPoint x="1457" y="390" as="targetPoint" />
          </mxGeometry>
        </mxCell>
        <mxCell id="_EUqcVfMnHmmKsiolm8a-49" value="" style="endArrow=none;html=1;rounded=0;fontSize=23;exitX=0;exitY=0.5;exitDx=0;exitDy=0;entryX=1;entryY=0;entryDx=0;entryDy=0;" edge="1" parent="1" source="_EUqcVfMnHmmKsiolm8a-43" target="_EUqcVfMnHmmKsiolm8a-20">
          <mxGeometry width="50" height="50" relative="1" as="geometry">
            <mxPoint x="1407" y="440" as="sourcePoint" />
            <mxPoint x="1457" y="390" as="targetPoint" />
          </mxGeometry>
        </mxCell>
        <mxCell id="_EUqcVfMnHmmKsiolm8a-50" value="&lt;font style=&quot;font-size: 23px;&quot;&gt;realiza&lt;br style=&quot;font-size: 23px;&quot;&gt;&lt;/font&gt;" style="rhombus;whiteSpace=wrap;html=1;fontSize=23;" vertex="1" parent="1">
          <mxGeometry x="730" y="197.5" width="130" height="105" as="geometry" />
        </mxCell>
        <mxCell id="_EUqcVfMnHmmKsiolm8a-51" value="" style="endArrow=none;html=1;rounded=0;fontSize=23;exitX=1;exitY=0.5;exitDx=0;exitDy=0;entryX=0;entryY=0.5;entryDx=0;entryDy=0;" edge="1" parent="1" source="_EUqcVfMnHmmKsiolm8a-2" target="_EUqcVfMnHmmKsiolm8a-50">
          <mxGeometry width="50" height="50" relative="1" as="geometry">
            <mxPoint x="450" y="380" as="sourcePoint" />
            <mxPoint x="500" y="330" as="targetPoint" />
          </mxGeometry>
        </mxCell>
        <mxCell id="_EUqcVfMnHmmKsiolm8a-52" value="" style="endArrow=none;html=1;rounded=0;fontSize=23;exitX=1;exitY=0.5;exitDx=0;exitDy=0;entryX=0;entryY=0.5;entryDx=0;entryDy=0;" edge="1" parent="1" source="_EUqcVfMnHmmKsiolm8a-50" target="_EUqcVfMnHmmKsiolm8a-20">
          <mxGeometry width="50" height="50" relative="1" as="geometry">
            <mxPoint x="730" y="250" as="sourcePoint" />
            <mxPoint x="910" y="330" as="targetPoint" />
          </mxGeometry>
        </mxCell>
        <mxCell id="_EUqcVfMnHmmKsiolm8a-53" value="&lt;font style=&quot;font-size: 23px;&quot;&gt;contiene&lt;br style=&quot;font-size: 23px;&quot;&gt;&lt;/font&gt;" style="rhombus;whiteSpace=wrap;html=1;fontSize=23;" vertex="1" parent="1">
          <mxGeometry x="1197" y="630" width="130" height="105" as="geometry" />
        </mxCell>
        <mxCell id="_EUqcVfMnHmmKsiolm8a-54" value="&lt;font style=&quot;font-size: 23px;&quot;&gt;genera&lt;br style=&quot;font-size: 23px;&quot;&gt;&lt;/font&gt;" style="rhombus;whiteSpace=wrap;html=1;fontSize=23;" vertex="1" parent="1">
          <mxGeometry x="1197" y="-210" width="130" height="105" as="geometry" />
        </mxCell>
        <mxCell id="_EUqcVfMnHmmKsiolm8a-55" value="&lt;font style=&quot;font-size: 23px;&quot;&gt;envío&lt;/font&gt;" style="rounded=0;whiteSpace=wrap;html=1;fontSize=23;" vertex="1" parent="1">
          <mxGeometry x="1187" y="-590" width="150" height="60" as="geometry" />
        </mxCell>
        <mxCell id="_EUqcVfMnHmmKsiolm8a-56" value="&lt;font style=&quot;font-size: 23px;&quot;&gt;ciudad&lt;/font&gt;" style="ellipse;whiteSpace=wrap;html=1;fontSize=23;fontStyle=0" vertex="1" parent="1">
          <mxGeometry x="910" y="-900" width="160" height="80" as="geometry" />
        </mxCell>
        <mxCell id="_EUqcVfMnHmmKsiolm8a-57" value="&lt;font style=&quot;font-size: 23px;&quot;&gt;apellido&lt;/font&gt;" style="ellipse;whiteSpace=wrap;html=1;fontSize=23;fontStyle=0" vertex="1" parent="1">
          <mxGeometry x="770" y="-650" width="160" height="80" as="geometry" />
        </mxCell>
        <mxCell id="_EUqcVfMnHmmKsiolm8a-58" value="&lt;font style=&quot;font-size: 23px;&quot;&gt;dirección&lt;/font&gt;" style="ellipse;whiteSpace=wrap;html=1;fontSize=23;fontStyle=0" vertex="1" parent="1">
          <mxGeometry x="820" y="-780" width="160" height="80" as="geometry" />
        </mxCell>
        <mxCell id="_EUqcVfMnHmmKsiolm8a-60" value="&lt;font style=&quot;font-size: 23px&quot;&gt;teléfono&lt;/font&gt;" style="ellipse;whiteSpace=wrap;html=1;fontSize=23;fontStyle=0" vertex="1" parent="1">
          <mxGeometry x="1070" y="-970" width="160" height="80" as="geometry" />
        </mxCell>
        <mxCell id="_EUqcVfMnHmmKsiolm8a-61" value="&lt;font style=&quot;font-size: 23px;&quot;&gt;id&lt;/font&gt;" style="ellipse;whiteSpace=wrap;html=1;fontSize=23;fontStyle=5" vertex="1" parent="1">
          <mxGeometry x="910" y="-410" width="160" height="80" as="geometry" />
        </mxCell>
        <mxCell id="_EUqcVfMnHmmKsiolm8a-62" value="&lt;font style=&quot;font-size: 23px;&quot;&gt;nombre&lt;/font&gt;" style="ellipse;whiteSpace=wrap;html=1;fontSize=23;fontStyle=0" vertex="1" parent="1">
          <mxGeometry x="820" y="-520" width="160" height="80" as="geometry" />
        </mxCell>
        <mxCell id="_EUqcVfMnHmmKsiolm8a-64" value="&lt;font style=&quot;font-size: 23px;&quot;&gt;genero&lt;/font&gt;" style="ellipse;whiteSpace=wrap;html=1;fontSize=23;fontStyle=0" vertex="1" parent="1">
          <mxGeometry x="810" y="1310" width="160" height="80" as="geometry" />
        </mxCell>
        <mxCell id="_EUqcVfMnHmmKsiolm8a-68" value="&lt;font style=&quot;font-size: 23px;&quot;&gt;id&lt;/font&gt;" style="ellipse;whiteSpace=wrap;html=1;fontSize=23;fontStyle=5" vertex="1" parent="1">
          <mxGeometry x="940" y="760" width="160" height="80" as="geometry" />
        </mxCell>
        <mxCell id="_EUqcVfMnHmmKsiolm8a-69" value="&lt;font style=&quot;font-size: 23px;&quot;&gt;tag&lt;/font&gt;" style="ellipse;whiteSpace=wrap;html=1;fontSize=23;fontStyle=0" vertex="1" parent="1">
          <mxGeometry x="930" y="1400" width="160" height="80" as="geometry" />
        </mxCell>
        <mxCell id="_EUqcVfMnHmmKsiolm8a-70" value="&lt;font style=&quot;font-size: 23px&quot;&gt;producto&lt;/font&gt;" style="rounded=0;whiteSpace=wrap;html=1;fontSize=23;" vertex="1" parent="1">
          <mxGeometry x="1187" y="999" width="150" height="60" as="geometry" />
        </mxCell>
        <mxCell id="_EUqcVfMnHmmKsiolm8a-71" value="&lt;font style=&quot;font-size: 23px;&quot;&gt;descripción&lt;/font&gt;" style="ellipse;whiteSpace=wrap;html=1;fontSize=23;fontStyle=0" vertex="1" parent="1">
          <mxGeometry x="730" y="960" width="160" height="80" as="geometry" />
        </mxCell>
        <mxCell id="_EUqcVfMnHmmKsiolm8a-72" value="&lt;font style=&quot;font-size: 23px;&quot;&gt;nombre&lt;/font&gt;" style="ellipse;whiteSpace=wrap;html=1;fontSize=23;fontStyle=0" vertex="1" parent="1">
          <mxGeometry x="820" y="850" width="160" height="80" as="geometry" />
        </mxCell>
        <mxCell id="_EUqcVfMnHmmKsiolm8a-73" value="&lt;font style=&quot;font-size: 23px;&quot;&gt;talla&lt;/font&gt;" style="ellipse;whiteSpace=wrap;html=1;fontSize=23;fontStyle=0" vertex="1" parent="1">
          <mxGeometry x="730" y="1090" width="160" height="80" as="geometry" />
        </mxCell>
        <mxCell id="_EUqcVfMnHmmKsiolm8a-74" value="&lt;font style=&quot;font-size: 23px;&quot;&gt;tipo&lt;/font&gt;" style="ellipse;whiteSpace=wrap;html=1;fontSize=23;fontStyle=0" vertex="1" parent="1">
          <mxGeometry x="730" y="1210" width="160" height="80" as="geometry" />
        </mxCell>
        <mxCell id="_EUqcVfMnHmmKsiolm8a-75" value="&lt;font style=&quot;font-size: 23px;&quot;&gt;estado&lt;/font&gt;" style="ellipse;whiteSpace=wrap;html=1;fontSize=23;fontStyle=0" vertex="1" parent="1">
          <mxGeometry x="1390" y="-130" width="160" height="80" as="geometry" />
        </mxCell>
        <mxCell id="_EUqcVfMnHmmKsiolm8a-76" value="" style="endArrow=none;html=1;rounded=0;fontSize=23;entryX=0;entryY=1;entryDx=0;entryDy=0;exitX=0.702;exitY=0.027;exitDx=0;exitDy=0;exitPerimeter=0;" edge="1" parent="1" source="_EUqcVfMnHmmKsiolm8a-20" target="_EUqcVfMnHmmKsiolm8a-75">
          <mxGeometry width="50" height="50" relative="1" as="geometry">
            <mxPoint x="1340" y="40" as="sourcePoint" />
            <mxPoint x="1390" y="-10" as="targetPoint" />
          </mxGeometry>
        </mxCell>
        <mxCell id="_EUqcVfMnHmmKsiolm8a-77" value="&lt;font style=&quot;font-size: 23px;&quot;&gt;precio&lt;/font&gt;" style="ellipse;whiteSpace=wrap;html=1;fontSize=23;fontStyle=0" vertex="1" parent="1">
          <mxGeometry x="1280" y="1460" width="160" height="80" as="geometry" />
        </mxCell>
        <mxCell id="_EUqcVfMnHmmKsiolm8a-78" value="&lt;font style=&quot;font-size: 23px;&quot;&gt;imagen&lt;/font&gt;" style="ellipse;whiteSpace=wrap;html=1;fontSize=23;fontStyle=0" vertex="1" parent="1">
          <mxGeometry x="1460" y="1390" width="160" height="80" as="geometry" />
        </mxCell>
        <mxCell id="_EUqcVfMnHmmKsiolm8a-79" value="&lt;font style=&quot;font-size: 23px;&quot;&gt;stock&lt;/font&gt;" style="ellipse;whiteSpace=wrap;html=1;fontSize=23;fontStyle=0" vertex="1" parent="1">
          <mxGeometry x="1090" y="1460" width="160" height="80" as="geometry" />
        </mxCell>
        <mxCell id="_EUqcVfMnHmmKsiolm8a-80" value="&lt;font style=&quot;font-size: 23px;&quot;&gt;fecha&lt;/font&gt;" style="ellipse;whiteSpace=wrap;html=1;fontSize=23;fontStyle=0" vertex="1" parent="1">
          <mxGeometry x="1580" y="1290" width="160" height="80" as="geometry" />
        </mxCell>
        <mxCell id="_EUqcVfMnHmmKsiolm8a-81" value="" style="endArrow=none;html=1;rounded=0;fontSize=23;exitX=1;exitY=0;exitDx=0;exitDy=0;entryX=0.25;entryY=1;entryDx=0;entryDy=0;" edge="1" parent="1" source="_EUqcVfMnHmmKsiolm8a-61" target="_EUqcVfMnHmmKsiolm8a-55">
          <mxGeometry width="50" height="50" relative="1" as="geometry">
            <mxPoint x="1340" y="-600" as="sourcePoint" />
            <mxPoint x="1430" y="-790" as="targetPoint" />
          </mxGeometry>
        </mxCell>
        <mxCell id="_EUqcVfMnHmmKsiolm8a-82" value="" style="endArrow=none;html=1;rounded=0;fontSize=23;exitX=1.005;exitY=0.415;exitDx=0;exitDy=0;exitPerimeter=0;entryX=0;entryY=0.75;entryDx=0;entryDy=0;" edge="1" parent="1" source="_EUqcVfMnHmmKsiolm8a-62" target="_EUqcVfMnHmmKsiolm8a-55">
          <mxGeometry width="50" height="50" relative="1" as="geometry">
            <mxPoint x="1340" y="-600" as="sourcePoint" />
            <mxPoint x="1390" y="-650" as="targetPoint" />
          </mxGeometry>
        </mxCell>
        <mxCell id="_EUqcVfMnHmmKsiolm8a-83" value="" style="endArrow=none;html=1;rounded=0;fontSize=23;exitX=1;exitY=0.5;exitDx=0;exitDy=0;entryX=0;entryY=0.5;entryDx=0;entryDy=0;" edge="1" parent="1" source="_EUqcVfMnHmmKsiolm8a-57" target="_EUqcVfMnHmmKsiolm8a-55">
          <mxGeometry width="50" height="50" relative="1" as="geometry">
            <mxPoint x="1340" y="-600" as="sourcePoint" />
            <mxPoint x="1390" y="-650" as="targetPoint" />
          </mxGeometry>
        </mxCell>
        <mxCell id="_EUqcVfMnHmmKsiolm8a-84" value="" style="endArrow=none;html=1;rounded=0;fontSize=23;exitX=1;exitY=1;exitDx=0;exitDy=0;entryX=0;entryY=0.25;entryDx=0;entryDy=0;" edge="1" parent="1" source="_EUqcVfMnHmmKsiolm8a-58" target="_EUqcVfMnHmmKsiolm8a-55">
          <mxGeometry width="50" height="50" relative="1" as="geometry">
            <mxPoint x="1340" y="-600" as="sourcePoint" />
            <mxPoint x="1390" y="-650" as="targetPoint" />
          </mxGeometry>
        </mxCell>
        <mxCell id="_EUqcVfMnHmmKsiolm8a-85" value="" style="endArrow=none;html=1;rounded=0;fontSize=23;exitX=1;exitY=1;exitDx=0;exitDy=0;entryX=0.087;entryY=0;entryDx=0;entryDy=0;entryPerimeter=0;" edge="1" parent="1" source="_EUqcVfMnHmmKsiolm8a-56" target="_EUqcVfMnHmmKsiolm8a-55">
          <mxGeometry width="50" height="50" relative="1" as="geometry">
            <mxPoint x="1340" y="-600" as="sourcePoint" />
            <mxPoint x="1390" y="-650" as="targetPoint" />
          </mxGeometry>
        </mxCell>
        <mxCell id="_EUqcVfMnHmmKsiolm8a-86" value="" style="endArrow=none;html=1;rounded=0;fontSize=23;entryX=0.5;entryY=1;entryDx=0;entryDy=0;exitX=0.5;exitY=0;exitDx=0;exitDy=0;" edge="1" parent="1" source="_EUqcVfMnHmmKsiolm8a-55" target="_EUqcVfMnHmmKsiolm8a-60">
          <mxGeometry width="50" height="50" relative="1" as="geometry">
            <mxPoint x="1340" y="-600" as="sourcePoint" />
            <mxPoint x="1390" y="-650" as="targetPoint" />
          </mxGeometry>
        </mxCell>
        <mxCell id="_EUqcVfMnHmmKsiolm8a-88" value="" style="endArrow=none;html=1;rounded=0;fontSize=23;exitX=0.5;exitY=0;exitDx=0;exitDy=0;entryX=0.5;entryY=1;entryDx=0;entryDy=0;" edge="1" parent="1" source="_EUqcVfMnHmmKsiolm8a-54" target="_EUqcVfMnHmmKsiolm8a-55">
          <mxGeometry width="50" height="50" relative="1" as="geometry">
            <mxPoint x="1340" y="-180" as="sourcePoint" />
            <mxPoint x="1390" y="-230" as="targetPoint" />
          </mxGeometry>
        </mxCell>
        <mxCell id="_EUqcVfMnHmmKsiolm8a-89" value="" style="endArrow=none;html=1;rounded=0;fontSize=23;entryX=0.5;entryY=1;entryDx=0;entryDy=0;exitX=0.5;exitY=0;exitDx=0;exitDy=0;" edge="1" parent="1" source="_EUqcVfMnHmmKsiolm8a-20" target="_EUqcVfMnHmmKsiolm8a-54">
          <mxGeometry width="50" height="50" relative="1" as="geometry">
            <mxPoint x="1340" y="120" as="sourcePoint" />
            <mxPoint x="1390" y="70" as="targetPoint" />
          </mxGeometry>
        </mxCell>
        <mxCell id="_EUqcVfMnHmmKsiolm8a-90" value="" style="endArrow=none;html=1;rounded=0;fontSize=23;exitX=0.5;exitY=0;exitDx=0;exitDy=0;entryX=0.5;entryY=1;entryDx=0;entryDy=0;" edge="1" parent="1" source="_EUqcVfMnHmmKsiolm8a-53" target="_EUqcVfMnHmmKsiolm8a-20">
          <mxGeometry width="50" height="50" relative="1" as="geometry">
            <mxPoint x="1340" y="750" as="sourcePoint" />
            <mxPoint x="1390" y="700" as="targetPoint" />
          </mxGeometry>
        </mxCell>
        <mxCell id="_EUqcVfMnHmmKsiolm8a-91" value="" style="endArrow=none;html=1;rounded=0;fontSize=23;entryX=0.5;entryY=1;entryDx=0;entryDy=0;exitX=0.5;exitY=0;exitDx=0;exitDy=0;" edge="1" parent="1" source="_EUqcVfMnHmmKsiolm8a-70" target="_EUqcVfMnHmmKsiolm8a-53">
          <mxGeometry width="50" height="50" relative="1" as="geometry">
            <mxPoint x="1340" y="900" as="sourcePoint" />
            <mxPoint x="1390" y="850" as="targetPoint" />
          </mxGeometry>
        </mxCell>
        <mxCell id="_EUqcVfMnHmmKsiolm8a-92" value="" style="endArrow=none;html=1;rounded=0;fontSize=23;entryX=1;entryY=1;entryDx=0;entryDy=0;exitX=0.25;exitY=0;exitDx=0;exitDy=0;" edge="1" parent="1" source="_EUqcVfMnHmmKsiolm8a-70" target="_EUqcVfMnHmmKsiolm8a-68">
          <mxGeometry width="50" height="50" relative="1" as="geometry">
            <mxPoint x="920" y="1170" as="sourcePoint" />
            <mxPoint x="970" y="1120" as="targetPoint" />
          </mxGeometry>
        </mxCell>
        <mxCell id="_EUqcVfMnHmmKsiolm8a-93" value="" style="endArrow=none;html=1;rounded=0;fontSize=23;entryX=1;entryY=0.5;entryDx=0;entryDy=0;exitX=0;exitY=0;exitDx=0;exitDy=0;" edge="1" parent="1" source="_EUqcVfMnHmmKsiolm8a-70" target="_EUqcVfMnHmmKsiolm8a-72">
          <mxGeometry width="50" height="50" relative="1" as="geometry">
            <mxPoint x="920" y="1170" as="sourcePoint" />
            <mxPoint x="970" y="1120" as="targetPoint" />
          </mxGeometry>
        </mxCell>
        <mxCell id="_EUqcVfMnHmmKsiolm8a-94" value="" style="endArrow=none;html=1;rounded=0;fontSize=23;entryX=1;entryY=0.5;entryDx=0;entryDy=0;exitX=0;exitY=0.25;exitDx=0;exitDy=0;" edge="1" parent="1" source="_EUqcVfMnHmmKsiolm8a-70" target="_EUqcVfMnHmmKsiolm8a-71">
          <mxGeometry width="50" height="50" relative="1" as="geometry">
            <mxPoint x="920" y="1170" as="sourcePoint" />
            <mxPoint x="970" y="1120" as="targetPoint" />
          </mxGeometry>
        </mxCell>
        <mxCell id="_EUqcVfMnHmmKsiolm8a-95" value="" style="endArrow=none;html=1;rounded=0;fontSize=23;exitX=1;exitY=0.5;exitDx=0;exitDy=0;entryX=0;entryY=0.5;entryDx=0;entryDy=0;" edge="1" parent="1" source="_EUqcVfMnHmmKsiolm8a-73" target="_EUqcVfMnHmmKsiolm8a-70">
          <mxGeometry width="50" height="50" relative="1" as="geometry">
            <mxPoint x="920" y="1170" as="sourcePoint" />
            <mxPoint x="970" y="1120" as="targetPoint" />
          </mxGeometry>
        </mxCell>
        <mxCell id="_EUqcVfMnHmmKsiolm8a-96" value="" style="endArrow=none;html=1;rounded=0;fontSize=23;exitX=1;exitY=0.5;exitDx=0;exitDy=0;entryX=0;entryY=0.75;entryDx=0;entryDy=0;" edge="1" parent="1" source="_EUqcVfMnHmmKsiolm8a-74" target="_EUqcVfMnHmmKsiolm8a-70">
          <mxGeometry width="50" height="50" relative="1" as="geometry">
            <mxPoint x="920" y="1170" as="sourcePoint" />
            <mxPoint x="970" y="1120" as="targetPoint" />
          </mxGeometry>
        </mxCell>
        <mxCell id="_EUqcVfMnHmmKsiolm8a-97" value="" style="endArrow=none;html=1;rounded=0;fontSize=23;exitX=1;exitY=0;exitDx=0;exitDy=0;entryX=0;entryY=1;entryDx=0;entryDy=0;" edge="1" parent="1" source="_EUqcVfMnHmmKsiolm8a-64" target="_EUqcVfMnHmmKsiolm8a-70">
          <mxGeometry width="50" height="50" relative="1" as="geometry">
            <mxPoint x="920" y="1170" as="sourcePoint" />
            <mxPoint x="970" y="1120" as="targetPoint" />
          </mxGeometry>
        </mxCell>
        <mxCell id="_EUqcVfMnHmmKsiolm8a-98" value="" style="endArrow=none;html=1;rounded=0;fontSize=23;exitX=0.702;exitY=0.063;exitDx=0;exitDy=0;exitPerimeter=0;" edge="1" parent="1" source="_EUqcVfMnHmmKsiolm8a-69">
          <mxGeometry width="50" height="50" relative="1" as="geometry">
            <mxPoint x="920" y="1170" as="sourcePoint" />
            <mxPoint x="1210" y="1060" as="targetPoint" />
          </mxGeometry>
        </mxCell>
        <mxCell id="_EUqcVfMnHmmKsiolm8a-99" value="" style="endArrow=none;html=1;rounded=0;fontSize=23;exitX=0.5;exitY=0;exitDx=0;exitDy=0;" edge="1" parent="1" source="_EUqcVfMnHmmKsiolm8a-79">
          <mxGeometry width="50" height="50" relative="1" as="geometry">
            <mxPoint x="920" y="1170" as="sourcePoint" />
            <mxPoint x="1230" y="1060" as="targetPoint" />
          </mxGeometry>
        </mxCell>
        <mxCell id="_EUqcVfMnHmmKsiolm8a-100" value="" style="endArrow=none;html=1;rounded=0;fontSize=23;exitX=0.5;exitY=0;exitDx=0;exitDy=0;entryX=0.5;entryY=1;entryDx=0;entryDy=0;" edge="1" parent="1" source="_EUqcVfMnHmmKsiolm8a-77" target="_EUqcVfMnHmmKsiolm8a-70">
          <mxGeometry width="50" height="50" relative="1" as="geometry">
            <mxPoint x="920" y="1170" as="sourcePoint" />
            <mxPoint x="970" y="1120" as="targetPoint" />
          </mxGeometry>
        </mxCell>
        <mxCell id="_EUqcVfMnHmmKsiolm8a-101" value="" style="endArrow=none;html=1;rounded=0;fontSize=23;exitX=0;exitY=0;exitDx=0;exitDy=0;entryX=0.75;entryY=1;entryDx=0;entryDy=0;" edge="1" parent="1" source="_EUqcVfMnHmmKsiolm8a-78" target="_EUqcVfMnHmmKsiolm8a-70">
          <mxGeometry width="50" height="50" relative="1" as="geometry">
            <mxPoint x="920" y="1170" as="sourcePoint" />
            <mxPoint x="970" y="1120" as="targetPoint" />
          </mxGeometry>
        </mxCell>
        <mxCell id="_EUqcVfMnHmmKsiolm8a-102" value="" style="endArrow=none;html=1;rounded=0;fontSize=23;exitX=0;exitY=0;exitDx=0;exitDy=0;entryX=1;entryY=1;entryDx=0;entryDy=0;" edge="1" parent="1" source="_EUqcVfMnHmmKsiolm8a-80" target="_EUqcVfMnHmmKsiolm8a-70">
          <mxGeometry width="50" height="50" relative="1" as="geometry">
            <mxPoint x="920" y="1170" as="sourcePoint" />
            <mxPoint x="970" y="1120" as="targetPoint" />
          </mxGeometry>
        </mxCell>
        <mxCell id="_EUqcVfMnHmmKsiolm8a-103" value="&lt;font style=&quot;font-size: 23px;&quot;&gt;1...N&lt;/font&gt;" style="text;html=1;align=center;verticalAlign=middle;resizable=0;points=[];autosize=1;strokeColor=none;fillColor=none;fontSize=23;" vertex="1" parent="1">
          <mxGeometry x="1200" y="302.5" width="60" height="30" as="geometry" />
        </mxCell>
        <mxCell id="_EUqcVfMnHmmKsiolm8a-104" value="&lt;font style=&quot;font-size: 23px;&quot;&gt;1...N&lt;/font&gt;" style="text;html=1;align=center;verticalAlign=middle;resizable=0;points=[];autosize=1;strokeColor=none;fillColor=none;fontSize=23;" vertex="1" parent="1">
          <mxGeometry x="1270" y="960" width="60" height="30" as="geometry" />
        </mxCell>
        <mxCell id="_EUqcVfMnHmmKsiolm8a-105" value="&lt;font style=&quot;font-size: 23px;&quot;&gt;N...N&lt;/font&gt;" style="text;html=1;align=center;verticalAlign=middle;resizable=0;points=[];autosize=1;strokeColor=none;fillColor=none;fontSize=23;" vertex="1" parent="1">
          <mxGeometry x="1325" y="660" width="70" height="30" as="geometry" />
        </mxCell>
        <mxCell id="_EUqcVfMnHmmKsiolm8a-106" value="&lt;font style=&quot;font-size: 23px;&quot;&gt;1...1&lt;/font&gt;" style="text;html=1;align=center;verticalAlign=middle;resizable=0;points=[];autosize=1;strokeColor=none;fillColor=none;fontSize=23;" vertex="1" parent="1">
          <mxGeometry x="1195" y="167.5" width="60" height="30" as="geometry" />
        </mxCell>
        <mxCell id="_EUqcVfMnHmmKsiolm8a-107" value="&lt;font style=&quot;font-size: 23px;&quot;&gt;1...1&lt;/font&gt;" style="text;html=1;align=center;verticalAlign=middle;resizable=0;points=[];autosize=1;strokeColor=none;fillColor=none;fontSize=23;" vertex="1" parent="1">
          <mxGeometry x="1265" y="-510" width="60" height="30" as="geometry" />
        </mxCell>
        <mxCell id="_EUqcVfMnHmmKsiolm8a-108" value="&lt;font style=&quot;font-size: 23px;&quot;&gt;1...1&lt;/font&gt;" style="text;html=1;align=center;verticalAlign=middle;resizable=0;points=[];autosize=1;strokeColor=none;fillColor=none;fontSize=23;" vertex="1" parent="1">
          <mxGeometry x="1330" y="-172.5" width="60" height="30" as="geometry" />
        </mxCell>
        <mxCell id="_EUqcVfMnHmmKsiolm8a-109" value="&lt;font style=&quot;font-size: 23px;&quot;&gt;1...1&lt;/font&gt;" style="text;html=1;align=center;verticalAlign=middle;resizable=0;points=[];autosize=1;strokeColor=none;fillColor=none;fontSize=23;" vertex="1" parent="1">
          <mxGeometry x="1080" y="220" width="60" height="30" as="geometry" />
        </mxCell>
        <mxCell id="_EUqcVfMnHmmKsiolm8a-110" value="&lt;font style=&quot;font-size: 23px;&quot;&gt;1...N&lt;/font&gt;" style="text;html=1;align=center;verticalAlign=middle;resizable=0;points=[];autosize=1;strokeColor=none;fillColor=none;fontSize=23;" vertex="1" parent="1">
          <mxGeometry x="390" y="260" width="60" height="30" as="geometry" />
        </mxCell>
        <mxCell id="_EUqcVfMnHmmKsiolm8a-111" value="&lt;font style=&quot;font-size: 23px;&quot;&gt;1...N&lt;/font&gt;" style="text;html=1;align=center;verticalAlign=middle;resizable=0;points=[];autosize=1;strokeColor=none;fillColor=none;fontSize=23;" vertex="1" parent="1">
          <mxGeometry x="765" y="142.5" width="60" height="30" as="geometry" />
        </mxCell>
        <mxCell id="_EUqcVfMnHmmKsiolm8a-112" value="&lt;font style=&quot;font-size: 23px;&quot;&gt;estado&lt;/font&gt;" style="ellipse;whiteSpace=wrap;html=1;fontSize=23;fontStyle=0" vertex="1" parent="1">
          <mxGeometry x="1654" y="1160" width="160" height="80" as="geometry" />
        </mxCell>
        <mxCell id="_EUqcVfMnHmmKsiolm8a-113" value="" style="endArrow=none;html=1;rounded=0;fontSize=23;exitX=0;exitY=0.5;exitDx=0;exitDy=0;entryX=1;entryY=0.75;entryDx=0;entryDy=0;" edge="1" parent="1" source="_EUqcVfMnHmmKsiolm8a-112" target="_EUqcVfMnHmmKsiolm8a-70">
          <mxGeometry width="50" height="50" relative="1" as="geometry">
            <mxPoint x="1170" y="960" as="sourcePoint" />
            <mxPoint x="1410" y="1020" as="targetPoint" />
          </mxGeometry>
        </mxCell>
      </root>
    </mxGraphModel>
  </diagram>
</mxfile>
